HIERARCHY
ROOT Hips
{
	OFFSET -3.958830 18.904000 13.208200
	CHANNELS 6 Xposition Yposition Zposition Zrotation Yrotation Xrotation 
	JOINT LHipJoint
	{
		OFFSET 0.000000 0.000000 0.000000
		CHANNELS 3 Zrotation Yrotation Xrotation
		JOINT LeftUpLeg
		{
			OFFSET 1.800000 -1.400000 0.085000
			CHANNELS 3 Zrotation Yrotation Xrotation
			JOINT LeftLeg
			{
				OFFSET 2.215000 -6.000000 0.000000
				CHANNELS 3 Zrotation Yrotation Xrotation
				JOINT LeftFoot
				{
					OFFSET 2.500000 -6.900000 0.000000
					CHANNELS 3 Zrotation Yrotation Xrotation
					JOINT LeftToeBase
					{
						OFFSET 0.200000 -0.500000 1.950000
						CHANNELS 3 Zrotation Yrotation Xrotation
						End Site
						{
							OFFSET 0.000000 0.000000 0.000000
						}
					}
				}
			}
		}
	}
	JOINT RHipJoint
	{
		OFFSET 0.000000 0.000000 0.000000
		CHANNELS 3 Zrotation Yrotation Xrotation
		JOINT RightUpLeg
		{
			OFFSET -1.800000 -1.400000 0.085000
			CHANNELS 3 Zrotation Yrotation Xrotation
			JOINT RightLeg
			{
				OFFSET -2.215000 -6.000000 0.000000
				CHANNELS 3 Zrotation Yrotation Xrotation
				JOINT RightFoot
				{
					OFFSET -2.500000 -6.900000 0.000000
					CHANNELS 3 Zrotation Yrotation Xrotation
					JOINT RightToeBase
					{
						OFFSET -0.200000 -0.500000 1.950000
						CHANNELS 3 Zrotation Yrotation Xrotation
						End Site
						{
							OFFSET 0.000000 0.000000 0.000000
						}
					}
				}
			}
		}
	}
	JOINT LowerBack
	{
		OFFSET 0.000000 0.000000 0.000000
		CHANNELS 3 Zrotation Yrotation Xrotation
		JOINT Spine
		{
			OFFSET -0.087000 1.940000 -0.288900
			CHANNELS 3 Zrotation Yrotation Xrotation
			JOINT Spine1
			{
				OFFSET 0.000000 1.950000 0.060000
				CHANNELS 3 Zrotation Yrotation Xrotation
				JOINT Neck
				{
					OFFSET 0.000000 0.000000 0.000000
					CHANNELS 3 Zrotation Yrotation Xrotation
					JOINT Neck1
					{
						OFFSET 0.000000 1.600000 0.340000
						CHANNELS 3 Zrotation Yrotation Xrotation
						JOINT Head
						{
							OFFSET 0.000000 1.667000 -0.240000
							CHANNELS 3 Zrotation Yrotation Xrotation
							End Site
							{
								OFFSET 0.000000 0.000000 0.000000
							}
						}
					}
				}
				JOINT LeftShoulder
				{
					OFFSET 0.000000 0.000000 0.000000
					CHANNELS 3 Zrotation Yrotation Xrotation
					JOINT LeftArm
					{
						OFFSET 2.700000 1.550000 -0.730000
						CHANNELS 3 Zrotation Yrotation Xrotation
						JOINT LeftForeArm
						{
							OFFSET 5.450000 0.000000 0.000000
							CHANNELS 3 Zrotation Yrotation Xrotation
							JOINT LeftHand
							{
								OFFSET 3.450000 0.000000 0.000000
								CHANNELS 3 Zrotation Yrotation Xrotation
								JOINT LeftHandIndex1
								{
									OFFSET 0.750000 0.000000 0.000000
									CHANNELS 3 Zrotation Yrotation Xrotation
									End Site
									{
										OFFSET 0.000000 0.000000 0.000000
									}
								}
							}
						}
					}
				}
				JOINT RightShoulder
				{
					OFFSET 0.000000 0.000000 0.000000
					CHANNELS 3 Zrotation Yrotation Xrotation
					JOINT RightArm
					{
						OFFSET -2.700000 1.550000 -0.730000
						CHANNELS 3 Zrotation Yrotation Xrotation
						JOINT RightForeArm
						{
							OFFSET -5.450000 0.000000 0.000000
							CHANNELS 3 Zrotation Yrotation Xrotation
							JOINT RightHand
							{
								OFFSET -3.450000 0.000000 0.000000
								CHANNELS 3 Zrotation Yrotation Xrotation
								JOINT RightHandIndex1
								{
									OFFSET -0.750000 0.000000 0.000000
									CHANNELS 3 Zrotation Yrotation Xrotation
									End Site
									{
										OFFSET 0.000000 0.000000 0.000000
									}
								}
							}
						}
					}
				}
			}
		}
	}
}
MOTION
Frames: 14
Frame Time: 0.016667
0.628110 16.969620 -1.079950 -5.012890 -5.074532 -4.867645 -15.267135 13.026186 3.061416 0.473109 0.713124 1.617854 -6.168554 4.620133 4.721060 -0.705171 4.612124 3.378613 1.027670 0.688140 0.495790 18.276646 -10.787111 2.909763 -3.080735 -0.973638 0.690883 5.491392 -4.986131 5.092650 -0.942981 -4.350552 3.115347 0.469350 0.413470 0.543310 -3.401263 -1.555797 -7.518527 8.044595 1.547727 11.852567 -0.055243 1.283968 22.332151 2.033925 -2.786518 -12.907145 -6.238141 3.185665 34.497084 -1.942380 1.070350 -24.085100 -10.669700 -32.546469 6.945138 -11.153562 -23.087756 -7.019741 32.634625 -62.077330 -20.638470 -3.400474 2.618345 0.941160 0.219100 0.189090 0.579580 7.785936 36.477767 8.920140 12.520912 26.102517 -11.790235 -29.452285 55.563103 -15.227012 1.060584 -1.393229 -0.190630 0.459340 -0.216230 -0.229050 
0.631420 16.968190 -1.080340 -5.095979 -5.104313 -4.796156 -15.262640 13.031784 3.064252 0.543973 0.697589 1.552105 -6.216086 4.626348 4.699606 -0.705836 4.618262 3.382258 1.019250 0.670850 0.497310 18.277714 -10.797408 2.902049 -3.136452 -0.954297 0.542128 5.460927 -4.989870 5.232696 -0.935902 -4.334900 3.121655 0.459520 0.417540 0.541320 -3.408043 -1.548318 -7.518133 8.132868 1.528224 11.935902 -0.100736 1.280792 22.047203 2.048237 -2.736942 -12.831721 -6.137050 3.140408 34.423514 -1.905390 1.075380 -24.095580 -10.503149 -32.213409 6.882671 -10.948478 -22.786947 -7.007370 33.023755 -62.402503 -20.935057 -3.399529 2.604749 0.946420 0.218520 0.184970 0.576340 7.570931 36.095025 8.838094 12.559217 25.909808 -11.766108 -29.682384 55.893386 -15.404417 1.057033 -1.380539 -0.197440 0.461870 -0.212380 -0.233320 
0.636530 16.966680 -1.082720 -5.156650 -5.217375 -4.755370 -15.266277 13.050132 3.077796 0.592467 0.699299 1.514403 -6.278117 4.636680 4.599803 -0.704813 4.635174 3.388055 0.993550 0.634700 0.490350 18.267315 -10.809987 2.880364 -3.396240 -0.915075 0.302111 5.428897 -5.008937 5.490373 -0.916269 -4.314136 3.137260 0.438670 0.433320 0.533510 -3.385431 -1.562258 -7.521151 8.079745 1.558498 12.140567 -0.054485 1.324586 21.636870 2.085531 -2.618981 -12.736273 -5.905733 3.075479 34.354664 -1.982680 1.125690 -23.931440 -10.391103 -31.720710 6.781012 -10.370833 -22.134370 -7.040754 33.462403 -62.936550 -21.280187 -3.412013 2.578419 0.948430 0.226050 0.169840 0.566070 7.367986 35.548531 8.746848 12.343222 25.410722 -11.825415 -30.060876 56.379585 -15.670545 1.051217 -1.356266 -0.211660 0.472600 -0.196710 -0.239660 
0.642320 16.966000 -1.085570 -5.331767 -5.365226 -4.730211 -15.266549 13.087876 3.091897 0.741010 0.696300 1.437006 -6.295779 4.647180 4.585782 -0.693646 4.642644 3.392725 0.966350 0.602330 0.471920 18.254437 -10.830233 2.858829 -3.666904 -0.872467 -0.015823 5.338725 -5.023402 5.835220 -0.897120 -4.285485 3.153093 0.416190 0.444610 0.533160 -3.362051 -1.590758 -7.534473 8.137731 1.547572 12.540737 -0.057906 1.350339 20.932184 2.164932 -2.475294 -12.593891 -5.633797 3.047540 34.322358 -1.938070 1.222810 -23.810470 -10.552585 -31.034719 6.665969 -9.420866 -21.079264 -7.087363 33.700211 -63.838350 -21.575744 -3.418606 2.571718 0.949880 0.229950 0.163660 0.563050 7.331153 34.788156 8.572879 11.822196 24.678035 -11.834205 -29.944085 57.059841 -15.649717 1.055146 -1.342207 -0.218560 0.471930 -0.185430 -0.238090 
0.650360 16.969680 -1.088400 -5.559863 -5.511278 -4.830454 -15.266593 13.156333 3.119907 0.927948 0.707096 1.480115 -6.223944 4.656626 4.545996 -0.664507 4.645114 3.399560 0.931970 0.557750 0.456570 18.234772 -10.843011 2.844240 -3.996656 -0.848343 -0.230268 5.146218 -5.019372 6.098935 -0.880074 -4.240589 3.176635 0.376670 0.443770 0.526970 -3.327773 -1.683907 -7.582883 8.351432 1.429561 13.242342 -0.158416 1.327555 20.111646 2.290398 -2.517797 -12.624569 -5.822183 3.000567 34.770200 -1.907550 1.205150 -23.802600 -10.954972 -30.382591 6.659730 -8.275202 -19.615812 -7.237314 33.972766 -64.472388 -21.771740 -3.415410 2.569212 0.957420 0.219520 0.162970 0.553650 7.430025 34.195816 8.533116 11.046295 23.594785 -12.034051 -29.988754 57.751415 -15.667601 1.073546 -1.319034 -0.220500 0.466560 -0.174730 -0.237740 
0.659380 16.971460 -1.088340 -5.719279 -5.598841 -4.832550 -15.278665 13.221613 3.152270 1.098126 0.722818 1.489485 -6.347409 4.687373 4.436284 -0.628149 4.654797 3.399136 0.909260 0.527820 0.444750 18.205491 -10.838628 2.820971 -4.585859 -0.809550 -0.528765 5.041813 -4.992583 6.115813 -0.860673 -4.197697 3.200262 0.347910 0.434860 0.526390 -3.264715 -1.801597 -7.626247 8.382707 1.350002 13.809559 -0.075517 1.303049 19.148572 2.406718 -2.545890 -12.557043 -5.973129 2.908014 35.065628 -2.012580 1.182600 -23.667160 -11.536210 -29.511927 6.573827 -7.187865 -18.214697 -7.209332 34.051953 -65.045056 -21.780516 -3.411886 2.582410 0.957140 0.211720 0.165520 0.550050 7.734859 33.402702 8.426736 10.084230 22.399027 -12.091395 -29.956163 58.304081 -15.545328 1.096009 -1.311534 -0.214850 0.449720 -0.174730 -0.235960 
0.669170 16.969840 -1.087130 -5.922001 -5.697756 -4.757910 -15.281202 13.280898 3.186760 1.297062 0.728336 1.452450 -6.506996 4.712020 4.259007 -0.601675 4.673639 3.404298 0.874950 0.479910 0.427420 18.183424 -10.843001 2.796910 -5.278622 -0.756183 -0.953531 4.887467 -4.949074 6.044661 -0.835606 -4.147854 3.227811 0.310780 0.441180 0.523810 -3.225907 -1.896670 -7.673557 8.570046 1.246655 14.315504 -0.122059 1.282787 18.080052 2.533387 -2.567123 -12.571302 -6.102636 2.893059 35.369212 -2.195650 1.229920 -23.286270 -12.011534 -28.602414 6.523339 -6.094710 -16.523484 -7.119775 33.557806 -65.476128 -21.388021 -3.415975 2.598539 0.963000 0.210400 0.159190 0.545650 7.906125 32.536949 8.377436 9.327478 21.123367 -12.141775 -30.218704 58.672021 -15.541355 1.110779 -1.296136 -0.221570 0.442040 -0.165700 -0.236250 
0.676240 16.969530 -1.085590 -6.074563 -5.683042 -4.755449 -15.301186 13.357193 3.223529 1.545475 0.750551 1.463425 -6.760746 4.769807 4.121409 -0.578083 4.707380 3.398363 0.852320 0.442310 0.427680 18.144395 -10.827276 2.762621 -6.189836 -0.703135 -1.325149 4.812161 -4.919094 5.951541 -0.814940 -4.101185 3.248886 0.280370 0.432730 0.517960 -3.140331 -2.054352 -7.718756 8.473905 1.137504 14.851881 0.039782 1.221675 17.023551 2.668577 -2.596593 -12.510668 -6.272447 2.900165 35.767366 -2.548840 1.349090 -23.237700 -12.477198 -27.556393 6.423078 -5.095504 -14.878303 -6.979628 33.173020 -65.555502 -20.928532 -3.414448 2.611216 0.975650 0.200680 0.158750 0.535030 8.074341 31.590188 8.243218 8.491756 19.984941 -12.082233 -30.214132 58.582941 -15.227601 1.131383 -1.283371 -0.227390 0.432760 -0.161770 -0.244500 
0.680580 16.966640 -1.081260 -6.010681 -5.704556 -4.644253 -15.338195 13.416614 3.259804 1.558965 0.783299 1.439461 -7.011646 4.805488 3.913601 -0.558304 4.739401 3.394084 0.831230 0.407190 0.430160 18.093849 -10.796187 2.717399 -7.477976 -0.628102 -1.781048 4.866369 -4.885061 5.650599 -0.791433 -4.069925 3.258347 0.256370 0.431370 0.516380 -3.016504 -2.214078 -7.745349 7.898243 1.159338 15.083177 0.456718 1.215198 15.982716 2.759096 -2.539856 -12.327594 -6.235400 2.911645 35.983989 -3.041480 1.535510 -22.858930 -12.907024 -26.328330 6.239788 -4.146151 -13.313420 -6.678435 32.416608 -65.381357 -20.122716 -3.426294 2.632711 0.978810 0.200220 0.153330 0.524190 8.332594 30.454479 8.011840 7.517809 18.984573 -11.802805 -29.795096 58.099259 -14.548860 1.156846 -1.284694 -0.233500 0.423770 -0.156330 -0.251720 
0.686410 16.961500 -1.073800 -6.054352 -5.607366 -4.456156 -15.356508 13.468137 3.292914 1.570960 0.793472 1.375017 -7.113704 4.802701 3.672096 -0.544312 4.750695 3.398520 0.806500 0.364920 0.432500 18.058883 -10.774732 2.687540 -8.738790 -0.557759 -2.274550 4.870738 -4.830237 5.259871 -0.767527 -4.031689 3.271128 0.228470 0.429630 0.506990 -2.943795 -2.342204 -7.785095 7.665886 1.062425 15.280807 0.641971 1.140733 14.719295 2.827245 -2.503681 -12.186403 -6.267842 2.955663 36.365127 -3.296790 1.680790 -22.430190 -13.416895 -25.088178 6.074528 -3.019823 -11.518087 -6.239624 30.557359 -65.091963 -18.589351 -3.438734 2.670644 0.986280 0.194570 0.145030 0.511310 8.689466 29.237759 7.793530 6.611284 17.992171 -11.404532 -29.094497 57.270722 -13.603236 1.188939 -1.284571 -0.244710 0.418640 -0.149270 -0.261390 
0.688110 16.958200 -1.065850 -5.815505 -5.528548 -4.281236 -15.401318 13.532358 3.336373 1.398758 0.826245 1.302930 -7.303374 4.820741 3.457583 -0.539135 4.774938 3.402788 0.778550 0.313040 0.442270 17.997338 -10.733328 2.648659 -10.274210 -0.474510 -2.819080 4.774651 -4.761239 4.811135 -0.742527 -3.986136 3.289356 0.196730 0.430220 0.491900 -2.795365 -2.528072 -7.832724 6.749641 1.112484 15.469871 1.098396 1.181342 13.329852 2.896522 -2.302532 -12.044672 -6.039371 2.962625 37.037595 -3.685630 1.925090 -22.165120 -14.047359 -23.846677 5.872579 -1.734434 -9.639384 -5.697863 28.270285 -64.855853 -16.824767 -3.457575 2.694743 1.007060 0.188340 0.136030 0.494620 9.208897 27.989909 7.590797 5.749276 17.112155 -10.896402 -28.148650 55.866955 -12.384463 1.222524 -1.273364 -0.267350 0.425160 -0.138640 -0.279980 
0.688190 16.954400 -1.059220 -5.680069 -5.414495 -3.964912 -15.441038 13.594771 3.369304 1.293450 0.824617 1.035428 -7.453148 4.818815 3.304915 -0.537242 4.779963 3.410364 0.752030 0.271770 0.438630 17.939738 -10.697486 2.614906 -11.709797 -0.382846 -3.533727 4.581872 -4.672789 4.427856 -0.715520 -3.936420 3.307780 0.171390 0.437330 0.485400 -2.660114 -2.695270 -7.875126 5.937076 1.189828 15.568771 1.625620 1.243730 11.782172 2.952349 -2.061762 -11.848178 -5.701969 2.957310 37.518662 -4.008080 2.166950 -21.739430 -14.823460 -22.591888 5.630917 -0.473786 -7.930119 -5.039341 25.879328 -64.465393 -14.972912 -3.485272 2.727739 1.019090 0.190070 0.128620 0.486630 9.903162 26.667673 7.347920 4.686789 16.209709 -10.279409 -27.099761 54.076858 -11.033305 1.259527 -1.271713 -0.283860 0.427400 -0.129000 -0.288930 
0.686570 16.951540 -1.054100 -5.576685 -5.224775 -3.643688 -15.483309 13.663400 3.391258 1.233624 0.806448 0.695619 -7.518972 4.813995 3.296077 -0.538611 4.770461 3.417399 0.735750 0.246790 0.437820 17.879559 -10.661650 2.582721 -13.096332 -0.300995 -4.287297 4.301569 -4.579215 4.128445 -0.693693 -3.887830 3.319765 0.153750 0.438790 0.483700 -2.518599 -2.867838 -7.909030 5.055503 1.279318 15.684745 2.248211 1.300329 10.273055 3.017631 -1.755057 -11.632244 -5.207196 2.926233 37.835008 -4.322310 2.455000 -21.489100 -15.529543 -21.383454 5.372886 0.696020 -6.346362 -4.425442 23.951141 -63.696013 -13.341718 -3.507592 2.760742 1.029740 0.190080 0.127570 0.481990 10.523885 25.340277 7.098098 3.591414 15.323930 -9.653207 -25.938968 51.990135 -9.664131 1.299017 -1.277326 -0.293410 0.423540 -0.125500 -0.294850 
0.679270 16.943940 -1.046740 -5.452683 -5.055188 -3.072622 -15.518831 13.680993 3.395063 1.156408 0.749426 0.180609 -7.684720 4.792956 3.250551 -0.545107 4.750540 3.422078 0.727430 0.233850 0.436460 17.834014 -10.639411 2.551429 -14.429697 -0.202632 -5.302480 3.966117 -4.463195 3.849216 -0.666937 -3.846003 3.319881 0.148650 0.442740 0.494690 -2.407551 -2.927393 -7.904630 4.044442 1.486224 15.260837 3.011189 1.374465 8.943489 3.016283 -1.231694 -11.303810 -4.203531 2.761002 37.692065 -4.753650 2.787470 -20.728640 -16.028830 -20.198874 5.058830 1.827364 -5.178743 -3.728348 21.898534 -62.227272 -11.486756 -3.542637 2.810193 1.021320 0.203920 0.122330 0.480780 11.090617 23.826926 6.776122 2.673156 14.760743 -8.851003 -24.802910 49.220702 -8.313050 1.338895 -1.302970 -0.293920 0.406510 -0.124360 -0.297250 
